<svg width="120" height="69" viewBox="0 0 120 69" fill="none" xmlns="http://www.w3.org/2000/svg">
<path fill-rule="evenodd" clip-rule="evenodd" d="M71.7687 12.0197C71.9022 12.1901 72.0169 12.3737 72.1105 12.5686C77.631 13.9067 81.6952 18.3349 81.6952 23.5771C81.6952 29.8757 75.8285 35 68.6173 35C64.8525 35 61.4549 33.6028 59.0666 31.3715H50.0005C48.0493 31.3715 46.4618 29.9849 46.4618 28.2806C46.4618 27.3018 46.986 26.4283 47.8015 25.8616C46.986 25.2949 46.4618 24.4215 46.4618 23.4426C46.4618 22.4638 46.986 21.5904 47.8015 21.0237C46.986 20.457 46.4618 19.5835 46.4618 18.6047C46.4618 17.6259 46.986 16.7525 47.8015 16.1857C46.986 15.619 46.4618 14.7456 46.4618 13.7668C46.4618 12.0625 48.0493 10.6759 50.0005 10.6759H52.0068C51.6151 10.1785 51.3853 9.57679 51.3853 8.92884C51.3853 8.28089 51.6152 7.67917 52.0068 7.18181H45.8464C43.8952 7.18181 42.3077 5.7952 42.3077 4.0909C42.3077 2.38661 43.8952 1 45.8464 1H64.6939C66.6451 1 68.2326 2.38661 68.2326 4.0909C68.2326 4.73885 68.0027 5.34057 67.611 5.83794H73.7715C75.7227 5.83794 77.3102 7.22454 77.3102 8.92884C77.3102 10.6331 75.7227 12.0197 73.7715 12.0197H71.7687ZM75.7716 8.92884C75.7716 7.96555 74.8744 7.18181 73.7715 7.18181H54.924C53.821 7.18181 52.9238 7.96555 52.9238 8.92884C52.9238 9.89213 53.821 10.6759 54.924 10.6759H68.848H73.7715C74.8744 10.6759 75.7716 9.89213 75.7716 8.92884ZM43.8463 4.0909C43.8463 5.05419 44.7435 5.83794 45.8464 5.83794H64.6939C65.7968 5.83794 66.694 5.05419 66.694 4.0909C66.694 3.12762 65.7968 2.34387 64.6939 2.34387H45.8464C44.7435 2.34387 43.8463 3.12762 43.8463 4.0909ZM68.848 12.0197H50.0005C48.8977 12.0197 48.0004 12.8035 48.0004 13.7668C48.0004 14.7301 48.8977 15.5138 50.0005 15.5138H59.3629C61.7318 13.4395 65.0059 12.1542 68.6173 12.1542C68.989 12.1542 69.3569 12.1686 69.7208 12.1953C69.4546 12.0826 69.1579 12.0197 68.848 12.0197ZM58.0484 16.8577H50.0005C48.8976 16.8577 48.0004 17.6414 48.0004 18.6047C48.0004 19.5681 48.8976 20.3517 50.0005 20.3517H56.0711C56.4999 19.0814 57.1751 17.9027 58.0484 16.8577ZM55.7179 21.6956H50.0005C48.8976 21.6956 48.0004 22.4793 48.0004 23.4426C48.0004 24.406 48.8976 25.1897 50.0005 25.1897H55.6704C55.5848 24.6627 55.5395 24.1245 55.5395 23.5771C55.5395 22.9363 55.6012 22.3079 55.7179 21.6956ZM48.0004 28.2806C48.0004 29.2439 48.8976 30.0276 50.0005 30.0276H57.8303C57.0033 28.9758 56.3727 27.7977 55.9845 26.5335H50.0005C48.8976 26.5335 48.0004 27.3172 48.0004 28.2806ZM57.078 23.5771C57.078 29.1347 62.2546 33.6561 68.6173 33.6561C74.9801 33.6561 80.1566 29.1347 80.1566 23.5771C80.1566 18.0195 74.9801 13.4981 68.6173 13.4981C62.2546 13.4981 57.078 18.0195 57.078 23.5771ZM64.1824 21.2802C64.1824 22.0967 64.9718 22.7609 65.9421 22.7609C67.7945 22.7609 69.3016 24.1228 69.3016 25.7969C69.3016 27.2219 68.2094 28.42 66.742 28.7452V29.0811C66.742 29.5105 66.3838 29.8588 65.9421 29.8588C65.5005 29.8588 65.1423 29.5105 65.1423 29.0811V28.7452C63.6748 28.42 62.5827 27.2219 62.5827 25.7969C62.5827 25.3675 62.9409 25.0193 63.3826 25.0193C63.8243 25.0193 64.1824 25.3675 64.1824 25.7969C64.1824 26.6134 64.9718 27.2776 65.9421 27.2776C66.9125 27.2776 67.7018 26.6134 67.7018 25.7969C67.7018 24.9804 66.9125 24.3161 65.9421 24.3161C64.0897 24.3161 62.5827 22.9542 62.5827 21.2802C62.5827 19.8553 63.6748 18.6571 65.1423 18.3319V17.9275C65.1423 17.4981 65.5005 17.1499 65.9421 17.1499C66.3838 17.1499 66.742 17.4981 66.742 17.9275V18.3319C68.2094 18.6571 69.3016 19.8553 69.3016 21.2802C69.3016 21.7096 68.9434 22.0579 68.5017 22.0579C68.06 22.0579 67.7018 21.7096 67.7018 21.2802C67.7018 20.4637 66.9125 19.7995 65.9421 19.7995C64.9718 19.7995 64.1824 20.4637 64.1824 21.2802Z" fill="#FF872C"/>
<path d="M72.1105 12.5686L71.8852 12.6768L71.9365 12.7836L72.0516 12.8115L72.1105 12.5686ZM71.7687 12.0197V11.7697H71.2552L71.5719 12.1739L71.7687 12.0197ZM59.0666 31.3715L59.2372 31.1888L59.1652 31.1215H59.0666V31.3715ZM47.8015 25.8616L47.9442 26.0669L48.2396 25.8616L47.9442 25.6563L47.8015 25.8616ZM47.8015 21.0237L47.9442 21.229L48.2396 21.0237L47.9442 20.8184L47.8015 21.0237ZM47.8015 16.1857L47.9442 16.391L48.2396 16.1857L47.9442 15.9804L47.8015 16.1857ZM52.0068 10.6759V10.9259H52.522L52.2032 10.5212L52.0068 10.6759ZM52.0068 7.18181L52.2033 7.33647L52.5219 6.93181H52.0068V7.18181ZM67.611 5.83794L67.4146 5.68327L67.096 6.08794H67.611V5.83794ZM59.3629 15.5138V15.7638H59.4569L59.5276 15.7019L59.3629 15.5138ZM69.7208 12.1953L69.7025 12.4446L69.8182 11.965L69.7208 12.1953ZM58.0484 16.8577L58.2403 17.018L58.5831 16.6077H58.0484V16.8577ZM56.0711 20.3517V20.6017H56.2506L56.308 20.4317L56.0711 20.3517ZM55.7179 21.6956L55.9635 21.7424L56.02 21.4456H55.7179V21.6956ZM55.6704 25.1897V25.4397H55.9643L55.9172 25.1496L55.6704 25.1897ZM57.8303 30.0276V30.2776H58.3448L58.0268 29.8731L57.8303 30.0276ZM55.9845 26.5335L56.2235 26.4602L56.1693 26.2835H55.9845V26.5335ZM66.742 28.7452L66.6879 28.5011L66.492 28.5445V28.7452H66.742ZM65.1423 28.7452H65.3923V28.5445L65.1964 28.5011L65.1423 28.7452ZM65.1423 18.3319L65.1964 18.576L65.3923 18.5326V18.3319H65.1423ZM66.742 18.3319H66.492V18.5326L66.6879 18.576L66.742 18.3319ZM72.3358 12.4603C72.2342 12.2488 72.1099 12.0498 71.9655 11.8655L71.5719 12.1739C71.6945 12.3303 71.7995 12.4986 71.8852 12.6768L72.3358 12.4603ZM81.9452 23.5771C81.9452 18.196 77.7775 13.685 72.1694 12.3256L72.0516 12.8115C77.4846 14.1285 81.4452 18.4737 81.4452 23.5771H81.9452ZM68.6173 35.25C75.9337 35.25 81.9452 30.0445 81.9452 23.5771H81.4452C81.4452 29.7069 75.7232 34.75 68.6173 34.75V35.25ZM58.8959 31.5542C61.332 33.83 64.7911 35.25 68.6173 35.25V34.75C64.9139 34.75 61.5778 33.3755 59.2372 31.1888L58.8959 31.5542ZM50.0005 31.6215H59.0666V31.1215H50.0005V31.6215ZM46.2118 28.2806C46.2118 30.1536 47.9441 31.6215 50.0005 31.6215V31.1215C48.1546 31.1215 46.7118 29.8161 46.7118 28.2806H46.2118ZM47.6589 25.6563C46.7868 26.2624 46.2118 27.2077 46.2118 28.2806H46.7118C46.7118 27.3958 47.1853 26.5943 47.9442 26.0669L47.6589 25.6563ZM46.2118 23.4426C46.2118 24.5155 46.7868 25.4609 47.6589 26.0669L47.9442 25.6563C47.1853 25.1289 46.7118 24.3274 46.7118 23.4426H46.2118ZM47.6589 20.8184C46.7868 21.4244 46.2118 22.3698 46.2118 23.4426H46.7118C46.7118 22.5579 47.1853 21.7564 47.9442 21.229L47.6589 20.8184ZM46.2118 18.6047C46.2118 19.6776 46.7868 20.6229 47.6589 21.229L47.9442 20.8184C47.1853 20.291 46.7118 19.4895 46.7118 18.6047H46.2118ZM47.6589 15.9804C46.7868 16.5865 46.2118 17.5319 46.2118 18.6047H46.7118C46.7118 17.7199 47.1853 16.9184 47.9442 16.391L47.6589 15.9804ZM46.2118 13.7668C46.2118 14.8396 46.7868 15.785 47.6589 16.391L47.9442 15.9804C47.1853 15.4531 46.7118 14.6515 46.7118 13.7668H46.2118ZM50.0005 10.4259C47.9441 10.4259 46.2118 11.8937 46.2118 13.7668H46.7118C46.7118 12.2312 48.1546 10.9259 50.0005 10.9259V10.4259ZM52.0068 10.4259H50.0005V10.9259H52.0068V10.4259ZM51.1353 8.92884C51.1353 9.63781 51.3872 10.2931 51.8104 10.8306L52.2032 10.5212C51.8431 10.0639 51.6353 9.51576 51.6353 8.92884H51.1353ZM51.8104 7.02714C51.3873 7.56455 51.1353 8.21985 51.1353 8.92884H51.6353C51.6353 8.34193 51.8431 7.7938 52.2033 7.33647L51.8104 7.02714ZM45.8464 7.43181H52.0068V6.93181H45.8464V7.43181ZM42.0577 4.0909C42.0577 5.96397 43.79 7.43181 45.8464 7.43181V6.93181C44.0004 6.93181 42.5577 5.62643 42.5577 4.0909H42.0577ZM45.8464 0.75C43.79 0.75 42.0577 2.21784 42.0577 4.0909H42.5577C42.5577 2.55537 44.0004 1.25 45.8464 1.25V0.75ZM64.6939 0.75H45.8464V1.25H64.6939V0.75ZM68.4826 4.0909C68.4826 2.21784 66.7503 0.75 64.6939 0.75V1.25C66.5399 1.25 67.9826 2.55537 67.9826 4.0909H68.4826ZM67.8074 5.9926C68.2306 5.45519 68.4826 4.79989 68.4826 4.0909H67.9826C67.9826 4.67781 67.7747 5.22594 67.4146 5.68327L67.8074 5.9926ZM73.7715 5.58794H67.611V6.08794H73.7715V5.58794ZM77.5602 8.92884C77.5602 7.05577 75.8279 5.58794 73.7715 5.58794V6.08794C75.6174 6.08794 77.0602 7.39331 77.0602 8.92884H77.5602ZM73.7715 12.2697C75.8279 12.2697 77.5602 10.8019 77.5602 8.92884H77.0602C77.0602 10.4644 75.6174 11.7697 73.7715 11.7697V12.2697ZM71.7687 12.2697H73.7715V11.7697H71.7687V12.2697ZM73.7715 7.43181C74.7692 7.43181 75.5216 8.13432 75.5216 8.92884H76.0216C76.0216 7.79679 74.9796 6.93181 73.7715 6.93181V7.43181ZM54.924 7.43181H73.7715V6.93181H54.924V7.43181ZM53.1738 8.92884C53.1738 8.13432 53.9263 7.43181 54.924 7.43181V6.93181C53.7158 6.93181 52.6738 7.79679 52.6738 8.92884H53.1738ZM54.924 10.4259C53.9263 10.4259 53.1738 9.72336 53.1738 8.92884H52.6738C52.6738 10.0609 53.7158 10.9259 54.924 10.9259V10.4259ZM68.848 10.4259H54.924V10.9259H68.848V10.4259ZM73.7715 10.4259H68.848V10.9259H73.7715V10.4259ZM75.5216 8.92884C75.5216 9.72336 74.7692 10.4259 73.7715 10.4259V10.9259C74.9796 10.9259 76.0216 10.0609 76.0216 8.92884H75.5216ZM45.8464 5.58794C44.8487 5.58794 44.0963 4.88543 44.0963 4.0909H43.5963C43.5963 5.22295 44.6382 6.08794 45.8464 6.08794V5.58794ZM64.6939 5.58794H45.8464V6.08794H64.6939V5.58794ZM66.444 4.0909C66.444 4.88543 65.6916 5.58794 64.6939 5.58794V6.08794C65.9021 6.08794 66.944 5.22295 66.944 4.0909H66.444ZM64.6939 2.59387C65.6916 2.59387 66.444 3.29638 66.444 4.0909H66.944C66.944 2.95885 65.9021 2.09387 64.6939 2.09387V2.59387ZM45.8464 2.59387H64.6939V2.09387H45.8464V2.59387ZM44.0963 4.0909C44.0963 3.29638 44.8487 2.59387 45.8464 2.59387V2.09387C44.6382 2.09387 43.5963 2.95885 43.5963 4.0909H44.0963ZM50.0005 12.2697H68.848V11.7697H50.0005V12.2697ZM48.2504 13.7668C48.2504 12.9723 49.0029 12.2697 50.0005 12.2697V11.7697C48.7925 11.7697 47.7504 12.6347 47.7504 13.7668H48.2504ZM50.0005 15.2638C49.0029 15.2638 48.2504 14.5613 48.2504 13.7668H47.7504C47.7504 14.8988 48.7925 15.7638 50.0005 15.7638V15.2638ZM59.3629 15.2638H50.0005V15.7638H59.3629V15.2638ZM68.6173 11.9042C64.947 11.9042 61.6139 13.2105 59.1982 15.3257L59.5276 15.7019C61.8497 13.6686 65.0649 12.4042 68.6173 12.4042V11.9042ZM69.7391 11.9459C69.3695 11.9188 68.9955 11.9042 68.6173 11.9042V12.4042C68.9826 12.4042 69.3444 12.4183 69.7025 12.4446L69.7391 11.9459ZM68.848 12.2697C69.1241 12.2697 69.3877 12.3258 69.6234 12.4255L69.8182 11.965C69.5215 11.8395 69.1917 11.7697 68.848 11.7697V12.2697ZM50.0005 17.1077H58.0484V16.6077H50.0005V17.1077ZM48.2504 18.6047C48.2504 17.8102 49.0029 17.1077 50.0005 17.1077V16.6077C48.7924 16.6077 47.7504 17.4727 47.7504 18.6047H48.2504ZM50.0005 20.1017C49.0029 20.1017 48.2504 19.3993 48.2504 18.6047H47.7504C47.7504 19.7368 48.7924 20.6017 50.0005 20.6017V20.1017ZM56.0711 20.1017H50.0005V20.6017H56.0711V20.1017ZM57.8566 16.6974C56.9646 17.7648 56.2736 18.9704 55.8343 20.2718L56.308 20.4317C56.7263 19.1925 57.3856 18.0407 58.2403 17.018L57.8566 16.6974ZM50.0005 21.9456H55.7179V21.4456H50.0005V21.9456ZM48.2504 23.4426C48.2504 22.6481 49.0029 21.9456 50.0005 21.9456V21.4456C48.7924 21.4456 47.7504 22.3105 47.7504 23.4426H48.2504ZM50.0005 24.9397C49.0029 24.9397 48.2504 24.2372 48.2504 23.4426H47.7504C47.7504 24.5748 48.7924 25.4397 50.0005 25.4397V24.9397ZM55.6704 24.9397H50.0005V25.4397H55.6704V24.9397ZM55.2895 23.5771C55.2895 24.1383 55.3359 24.6899 55.4236 25.2298L55.9172 25.1496C55.8336 24.6354 55.7895 24.1106 55.7895 23.5771H55.2895ZM55.4723 21.6488C55.3527 22.2762 55.2895 22.9202 55.2895 23.5771H55.7895C55.7895 22.9524 55.8496 22.3397 55.9635 21.7424L55.4723 21.6488ZM50.0005 29.7776C49.0029 29.7776 48.2504 29.0752 48.2504 28.2806H47.7504C47.7504 29.4127 48.7924 30.2776 50.0005 30.2776V29.7776ZM57.8303 29.7776H50.0005V30.2776H57.8303V29.7776ZM55.7455 26.6069C56.1433 27.9022 56.7888 29.1075 57.6337 30.1821L58.0268 29.8731C57.2177 28.844 56.6021 27.6932 56.2235 26.4602L55.7455 26.6069ZM50.0005 26.7835H55.9845V26.2835H50.0005V26.7835ZM48.2504 28.2806C48.2504 27.486 49.0029 26.7835 50.0005 26.7835V26.2835C48.7924 26.2835 47.7504 27.1485 47.7504 28.2806H48.2504ZM68.6173 33.4061C62.3598 33.4061 57.328 28.9659 57.328 23.5771H56.828C56.828 29.3034 62.1493 33.9061 68.6173 33.9061V33.4061ZM79.9066 23.5771C79.9066 28.9659 74.8749 33.4061 68.6173 33.4061V33.9061C75.0853 33.9061 80.4066 29.3034 80.4066 23.5771H79.9066ZM68.6173 13.7481C74.8749 13.7481 79.9066 18.1883 79.9066 23.5771H80.4066C80.4066 17.8508 75.0853 13.2481 68.6173 13.2481V13.7481ZM57.328 23.5771C57.328 18.1883 62.3598 13.7481 68.6173 13.7481V13.2481C62.1493 13.2481 56.828 17.8508 56.828 23.5771H57.328ZM65.9421 22.5109C65.0677 22.5109 64.4324 21.9199 64.4324 21.2802H63.9324C63.9324 22.2734 64.8759 23.0109 65.9421 23.0109V22.5109ZM69.5516 25.7969C69.5516 23.9615 67.9082 22.5109 65.9421 22.5109V23.0109C67.6809 23.0109 69.0516 24.2841 69.0516 25.7969H69.5516ZM66.7961 28.9893C68.3584 28.6431 69.5516 27.358 69.5516 25.7969H69.0516C69.0516 27.0857 68.0605 28.197 66.6879 28.5011L66.7961 28.9893ZM66.992 29.0811V28.7452H66.492V29.0811H66.992ZM65.9421 30.1088C66.5152 30.1088 66.992 29.6552 66.992 29.0811H66.492C66.492 29.3659 66.2524 29.6088 65.9421 29.6088V30.1088ZM64.8923 29.0811C64.8923 29.6552 65.3691 30.1088 65.9421 30.1088V29.6088C65.6318 29.6088 65.3923 29.3659 65.3923 29.0811H64.8923ZM64.8923 28.7452V29.0811H65.3923V28.7452H64.8923ZM62.3327 25.7969C62.3327 27.358 63.5259 28.6431 65.0882 28.9893L65.1964 28.5011C63.8238 28.197 62.8327 27.0857 62.8327 25.7969H62.3327ZM63.3826 24.7693C62.8095 24.7693 62.3327 25.2228 62.3327 25.7969H62.8327C62.8327 25.5121 63.0723 25.2693 63.3826 25.2693V24.7693ZM64.4324 25.7969C64.4324 25.2228 63.9556 24.7693 63.3826 24.7693V25.2693C63.6929 25.2693 63.9324 25.5121 63.9324 25.7969H64.4324ZM65.9421 27.0276C65.0677 27.0276 64.4324 26.4366 64.4324 25.7969H63.9324C63.9324 26.7901 64.8759 27.5276 65.9421 27.5276V27.0276ZM67.4518 25.7969C67.4518 26.4366 66.8166 27.0276 65.9421 27.0276V27.5276C67.0084 27.5276 67.9518 26.7901 67.9518 25.7969H67.4518ZM65.9421 24.5661C66.8166 24.5661 67.4518 25.1571 67.4518 25.7969H67.9518C67.9518 24.8036 67.0084 24.0661 65.9421 24.0661V24.5661ZM62.3327 21.2802C62.3327 23.1155 63.9761 24.5661 65.9421 24.5661V24.0661C64.2034 24.0661 62.8327 22.7929 62.8327 21.2802H62.3327ZM65.0882 18.0878C63.5259 18.4341 62.3327 19.7191 62.3327 21.2802H62.8327C62.8327 19.9915 63.8238 18.8802 65.1964 18.576L65.0882 18.0878ZM64.8923 17.9275V18.3319H65.3923V17.9275H64.8923ZM65.9421 16.8999C65.3691 16.8999 64.8923 17.3534 64.8923 17.9275H65.3923C65.3923 17.6427 65.6318 17.3999 65.9421 17.3999V16.8999ZM66.992 17.9275C66.992 17.3534 66.5152 16.8999 65.9421 16.8999V17.3999C66.2524 17.3999 66.492 17.6427 66.492 17.9275H66.992ZM66.992 18.3319V17.9275H66.492V18.3319H66.992ZM69.5516 21.2802C69.5516 19.7191 68.3584 18.4341 66.7961 18.0878L66.6879 18.576C68.0605 18.8802 69.0516 19.9915 69.0516 21.2802H69.5516ZM68.5017 22.3079C69.0748 22.3079 69.5516 21.8543 69.5516 21.2802H69.0516C69.0516 21.565 68.812 21.8079 68.5017 21.8079V22.3079ZM67.4518 21.2802C67.4518 21.8543 67.9286 22.3079 68.5017 22.3079V21.8079C68.1914 21.8079 67.9518 21.565 67.9518 21.2802H67.4518ZM65.9421 20.0495C66.8166 20.0495 67.4518 20.6405 67.4518 21.2802H67.9518C67.9518 20.287 67.0084 19.5495 65.9421 19.5495V20.0495ZM64.4324 21.2802C64.4324 20.6405 65.0677 20.0495 65.9421 20.0495V19.5495C64.8759 19.5495 63.9324 20.287 63.9324 21.2802H64.4324Z" fill="#FF872C"/>
<path d="M0 57.6626C0 61.1925 2.42671 63.5804 5.58357 63.5804C7.7311 63.5804 9.25584 62.4799 9.96452 61.2548V63.6427C9.96452 66.0721 8.39683 67.3595 6.31373 67.3595C4.38095 67.3595 2.98506 66.4251 2.55556 65.0547H0.622783C1.00934 67.4841 3.22129 68.9999 6.31373 68.9999C9.77125 68.9999 11.9402 66.7781 11.9402 63.6427V52.0147H9.96452V54.0912C9.27731 52.8661 7.7311 51.8279 5.58357 51.8279C2.42671 51.8279 0 54.1119 0 57.6626ZM9.96452 57.6834C9.96452 60.362 8.11765 61.9193 5.97012 61.9193C3.8226 61.9193 1.9972 60.3412 1.9972 57.6626C1.9972 54.984 3.8226 53.4682 5.97012 53.4682C8.11765 53.4682 9.96452 55.0463 9.96452 57.6834Z" fill="white"/>
<path d="M26.4099 57.6834C26.4099 54.0912 23.8114 51.8279 20.4612 51.8279C17.1326 51.8279 14.5126 54.0912 14.5126 57.6834C14.5126 61.2964 17.0467 63.5804 20.3753 63.5804C23.7255 63.5804 26.4099 61.2964 26.4099 57.6834ZM16.5098 57.6834C16.5098 54.8179 18.3781 53.4682 20.4398 53.4682C22.4584 53.4682 24.4127 54.8179 24.4127 57.6834C24.4127 60.5696 22.4155 61.9193 20.3753 61.9193C18.3352 61.9193 16.5098 60.5696 16.5098 57.6834Z" fill="white"/>
<path d="M30.1032 63.3937H32.5729V53.8837H34.7634V51.9526H32.5729V51.1428C32.5729 49.8346 33.0883 49.3363 34.5916 49.3363V47.3637C31.4991 47.3637 30.1032 48.5057 30.1032 51.1428V51.9526H28.7073V53.8837H30.1032V63.3937Z" fill="white"/>
<path d="M36.933 63.3937H39.3812V51.9526H36.933V63.3937ZM38.1786 50.4368C39.0376 50.4368 39.7248 49.7723 39.7248 48.921C39.7248 48.0697 39.0376 47.4052 38.1786 47.4052C37.2981 47.4052 36.6109 48.0697 36.6109 48.921C36.6109 49.7723 37.2981 50.4368 38.1786 50.4368Z" fill="white"/>
<path d="M50.9923 63.3937H53.419V56.6453C53.419 53.4476 51.3359 51.7657 48.5656 51.7657C47.1482 51.7657 45.8382 52.3264 45.0436 53.2607V51.9526H42.5955V63.3937H45.0436V56.9983C45.0436 54.9011 46.2248 53.8214 48.0287 53.8214C49.8111 53.8214 50.9923 54.9011 50.9923 56.9983V63.3937Z" fill="white"/>
<path d="M55.7257 57.6212C55.7257 61.1512 58.1954 63.5806 61.2663 63.5806C63.2421 63.5806 64.6594 62.667 65.4111 61.691V63.3937H67.8807V51.9526H65.4111V53.6137C64.6809 52.6793 63.3065 51.7657 61.3093 51.7657C58.1954 51.7657 55.7257 54.0913 55.7257 57.6212ZM65.4111 57.6628C65.4111 60.1337 63.6716 61.5249 61.8247 61.5249C59.9993 61.5249 58.2383 60.0922 58.2383 57.6212C58.2383 55.1503 59.9993 53.8214 61.8247 53.8214C63.6716 53.8214 65.4111 55.2126 65.4111 57.6628Z" fill="white"/>
<path d="M79.4931 63.3937H81.9198V56.6453C81.9198 53.4476 79.8367 51.7657 77.0664 51.7657C75.6491 51.7657 74.3391 52.3264 73.5445 53.2607V51.9526H71.0963V63.3937H73.5445V56.9983C73.5445 54.9011 74.7256 53.8214 76.5296 53.8214C78.312 53.8214 79.4931 54.9011 79.4931 56.9983V63.3937Z" fill="white"/>
<path d="M84.2266 57.6628C84.2266 61.255 86.6318 63.5806 90.0249 63.5806C92.9241 63.5806 94.8139 62.0233 95.4796 59.7807H92.8382C92.3872 60.9643 91.4852 61.5872 90.0249 61.5872C88.0492 61.5872 86.7392 60.1752 86.7392 57.6628C86.7392 55.1711 88.0492 53.7591 90.0249 53.7591C91.4852 53.7591 92.4301 54.4651 92.8382 55.5656H95.4796C94.8139 53.1569 92.9241 51.7657 90.0249 51.7657C86.6318 51.7657 84.2266 54.0913 84.2266 57.6628Z" fill="white"/>
<path d="M102.902 53.7591C104.727 53.7591 106.166 54.8804 106.209 56.6453H99.6589C99.9166 54.8388 101.248 53.7591 102.902 53.7591ZM108.442 59.9884H105.801C105.35 60.8812 104.512 61.5872 103.009 61.5872C101.205 61.5872 99.8092 60.4452 99.6374 58.5556H108.679C108.743 58.1611 108.764 57.7874 108.764 57.3928C108.764 54.029 106.381 51.7657 103.009 51.7657C99.5086 51.7657 97.1034 54.0705 97.1034 57.6628C97.1034 61.255 99.616 63.5806 103.009 63.5806C105.908 63.5806 107.777 61.9817 108.442 59.9884Z" fill="white"/>
<path d="M120 60.196C119.871 56.0639 113.192 57.3513 113.192 55.0465C113.192 54.2782 113.88 53.7591 115.19 53.7591C116.521 53.7591 117.316 54.4443 117.401 55.441H119.85C119.721 53.1569 117.96 51.7657 115.275 51.7657C112.484 51.7657 110.723 53.24 110.723 55.0672C110.723 59.2616 117.595 57.9742 117.595 60.2168C117.595 61.0058 116.843 61.5872 115.426 61.5872C114.073 61.5872 113.149 60.8189 113.063 59.8845H110.529C110.637 61.961 112.634 63.5806 115.469 63.5806C118.261 63.5806 120 62.1271 120 60.196Z" fill="white"/>
</svg>
